<svg width="126" height="93" viewBox="0 0 126 93" fill="none" xmlns="http://www.w3.org/2000/svg">
<path d="M9.94995 128.526L26.32 82.3159L50.4339 76.0386L60.6083 44.0916L78.111 36.1924L91.156 14.0271L113.097 12.6433L129.18 54.425L153.741 64.7612L164.954 118.19L185.524 125.761L191 168.608L9.94995 128.526Z" fill="url(#paint0_linear_920_1537)"/>
<path d="M129.262 54.4807L103.255 68.0662L152.312 64.0298L129.262 54.4807Z" fill="url(#paint1_linear_920_1537)"/>
<path d="M91.1556 14.0271L99.5096 23.4081L113.097 12.6433L91.1556 14.0271Z" fill="url(#paint2_linear_920_1537)"/>
<path d="M60.6083 44.0918L69.216 50.0123C86.9407 62.2036 109.862 63.8904 129.18 54.4252L127.012 48.7921L99.1185 52.0162L78.111 36.1926L60.6083 44.0918Z" fill="url(#paint3_linear_920_1537)"/>
<path d="M50.4334 76.0386L76.2414 140L69.9729 141.815L26.3195 82.316L50.4334 76.0386Z" fill="url(#paint4_linear_920_1537)"/>
<path d="M76.0485 76.7844C72.9795 76.608 72.4036 74.3817 72.4036 74.3817C73.3485 74.1995 74.3185 74.4259 75.1276 75.0173C75.1276 75.0173 74.2673 74.0064 74.4739 72.0349C74.4739 72.0349 76.6171 72.6342 76.8139 76.0647" fill="#002C99"/>
<path d="M82.1291 77.932C82.1291 77.932 82.1291 75.9045 79.4707 74.5715C79.8221 75.8371 80.4149 76.9958 81.2057 77.9628" fill="#002C99"/>
<path d="M81.058 81.1383C81.058 81.1383 79.9596 82.7206 77.17 81.8384C78.1308 81.104 79.2216 80.6257 80.363 80.4382" fill="#002C99"/>
<path d="M75.3521 75.3223C76.2536 77.753 78.1392 79.6881 80.1852 80.8783C81.1166 81.4584 82.1276 81.8496 83.1741 82.0348C83.7202 82.1468 84.2827 82.0759 84.7949 81.8304C85.0477 81.7022 85.2632 81.4927 85.4153 81.227C85.5675 80.9612 85.6499 80.6506 85.6527 80.3322C85.6273 80.0804 85.5541 79.8381 85.4382 79.6227C85.3222 79.4073 85.1665 79.2241 84.982 79.086C84.6118 78.8146 84.2066 78.6123 83.7816 78.4867C80.9628 77.487 78.025 76.8149 75.3521 75.3223Z" fill="white"/>
<path d="M38.444 39.8891C38.444 39.8891 38.1183 39.9407 37.6018 40.0169C37.3436 40.0359 37.0383 40.0677 36.7063 40.0922C36.3782 40.0987 36.0132 40.108 35.6406 40.1152C35.2693 40.0975 34.8879 40.0706 34.5039 40.0557C34.125 40.0169 33.75 39.9791 33.3914 39.9584C32.6732 39.866 32.0196 39.8291 31.5373 39.9715C30.5435 40.1852 30.0779 41.6383 29.8883 43.0645C29.7317 44.5059 29.9059 45.9098 29.9059 45.9098C29.9059 45.9098 30.5282 45.7353 31.4473 45.4001C31.8942 45.2163 32.4188 44.9712 32.9625 44.6931C33.5013 44.382 34.0605 44.032 34.6059 43.653C35.1398 43.2518 35.6572 42.8335 36.1315 42.4098C36.5905 41.9821 37.0125 41.5571 37.3569 41.1935C38.0216 40.4282 38.444 39.8891 38.444 39.8891Z" fill="#050B24"/>
<path d="M21.8048 50.7042C21.8048 50.7042 22.1044 51.3747 22.7043 52.3926C23.0196 52.8962 23.4237 53.4744 23.909 54.0873C24.4148 54.6803 25.0082 55.297 25.701 55.8834C26.4039 56.4409 27.1986 56.966 28.0812 57.4008C28.9716 57.7806 29.9461 58.069 30.9809 58.2278C32.0221 58.3186 33.1159 58.2587 34.2343 58.028C35.3441 57.7252 36.4708 57.2494 37.5778 56.5654C38.6442 55.826 39.6462 54.9362 40.5455 53.9425C41.4054 52.9065 42.1651 51.7927 42.8257 50.6522C43.4457 49.4943 43.9729 48.3178 44.4033 47.1595C44.8046 46.0061 45.1154 44.8789 45.3561 43.8343C45.5662 42.8005 45.719 41.8272 45.8167 40.9596C45.8954 40.1058 45.9382 39.3438 45.9539 38.7267C45.9598 37.4983 45.9135 36.7756 45.9135 36.7756C45.9135 36.7756 45.5291 36.8748 44.9206 37.1163C44.6151 37.2241 44.2523 37.3544 43.8475 37.5115C43.4465 37.6506 43.0035 37.8163 42.5338 38.0129C42.0666 38.1785 41.5675 38.3798 41.0493 38.614C40.5374 38.8563 39.9937 39.1154 39.4322 39.3633C38.8669 39.6291 38.2861 39.9479 37.6823 40.3366C37.0633 40.6831 36.4148 41.1104 35.7331 41.6175C35.0298 42.0935 34.3149 42.6234 33.5987 43.1972C32.8558 43.7259 32.1078 44.2976 31.3636 44.8702C30.5927 45.3977 29.8308 45.9402 29.0841 46.4679C28.3185 46.9523 27.5733 47.436 26.8726 47.8809C26.1542 48.2957 25.4893 48.6869 24.8805 49.0425C24.2654 49.371 23.7203 49.6741 23.2669 49.9258C22.3487 50.3881 21.8048 50.7042 21.8048 50.7042Z" fill="url(#paint5_linear_920_1537)"/>
<path d="M16.2645 46.8883C16.2645 46.8883 15.8506 47.1253 15.2227 47.4567C14.5936 47.7752 13.7456 48.174 12.89 48.5518C12.0294 48.8965 11.165 49.2211 10.512 49.4444C9.8553 49.6475 9.41874 49.7833 9.41874 49.7833C9.9141 50.4623 10.4937 51.0309 11.1193 51.4977C11.7552 51.9356 12.4398 52.2599 13.1436 52.4942C13.8412 52.7015 14.5582 52.7999 15.2651 52.8322C15.9696 52.8385 16.6629 52.7656 17.313 52.6494C18.6008 52.3439 19.7301 51.8752 20.5349 51.471C21.3284 51.0258 21.8048 50.7042 21.8048 50.7042C21.8048 50.7042 21.5879 50.0623 21.218 49.0621C20.8787 48.0512 20.4337 46.6503 19.9254 45.1499C19.7024 44.3859 19.4604 43.5978 19.2133 42.8146C18.9777 42.0156 18.7332 41.2204 18.4758 40.4662C18.2338 39.6971 17.9713 38.9668 17.6895 38.3074C17.4154 37.6311 17.117 37.0116 16.7738 36.5069C16.7738 36.5069 16.6894 37.1245 16.5686 38.062C16.4604 39.0156 16.3514 40.2923 16.2664 41.5881C16.2145 42.8993 16.2006 44.2207 16.2081 45.2182C16.2346 46.2208 16.2645 46.8883 16.2645 46.8883Z" fill="#050B24"/>
<path d="M41.2645 45.0061C41.2645 45.0061 40.8636 45.5763 40.2458 46.405C39.9294 46.8078 39.5428 47.2741 39.123 47.7632C38.6893 48.2421 38.2162 48.7358 37.7304 49.2134C37.2395 49.6769 36.727 50.1282 36.2388 50.5418C35.7444 50.9282 35.2742 51.2769 34.8639 51.5719C34.0243 52.1189 33.4537 52.4657 33.4537 52.4657C33.4537 52.4657 33.1234 50.0243 34.0314 48.1643C34.4562 47.2201 35.1439 46.3849 36.2553 45.943C36.8016 45.691 37.4634 45.5019 38.2712 45.4029C38.6796 45.3229 39.1287 45.2602 39.6222 45.2159C40.1171 45.1465 40.6603 45.0776 41.2645 45.0061Z" fill="url(#paint6_linear_920_1537)"/>
<path d="M54.9097 16.8026C54.9097 16.8026 54.7158 16.8634 54.4077 16.9576C54.2518 16.9974 54.0683 17.048 53.8679 17.0992C53.6679 17.143 53.4457 17.1924 53.2187 17.2421C52.9899 17.2819 52.754 17.3196 52.5178 17.3622C52.2822 17.3949 52.0492 17.4275 51.8279 17.4647C51.3795 17.5195 50.9763 17.5875 50.6957 17.7029C50.1097 17.91 49.9713 18.5269 49.999 19.0987C50.0484 19.6722 50.2961 20.1897 50.2961 20.1897C50.2961 20.1897 50.659 20.0444 51.1871 19.8C51.4418 19.6732 51.7379 19.513 52.0423 19.3378C52.3404 19.1505 52.647 18.9457 52.9422 18.7315C53.2282 18.5102 53.5025 18.2844 53.7497 18.062C53.9873 17.8399 54.2025 17.6235 54.3764 17.4405C54.7057 17.0629 54.9097 16.8026 54.9097 16.8026Z" fill="#050B24"/>
<path d="M45.8264 23.0507C45.8264 23.0507 46.077 23.2706 46.5463 23.5862C46.7897 23.7401 47.0949 23.9114 47.4533 24.0859C47.8222 24.2501 48.2471 24.4124 48.7296 24.5506C49.2154 24.6764 49.7541 24.7782 50.3374 24.8343C50.92 24.8682 51.5448 24.8564 52.1933 24.7873C52.839 24.6913 53.5017 24.5307 54.1622 24.3014C54.8101 24.0455 55.451 23.721 56.0589 23.3189C56.6364 22.9008 57.1594 22.4328 57.6091 21.9379C58.0306 21.4317 58.3829 20.9083 58.6719 20.387C58.9344 19.8641 59.1382 19.3458 59.2848 18.8466C59.414 18.353 59.4905 17.8808 59.5325 17.4492C59.5569 17.0256 59.5523 16.6324 59.5247 16.2868C59.4869 15.9488 59.4363 15.6507 59.3838 15.4116C59.2638 14.9389 59.1627 14.667 59.1627 14.667C59.1627 14.667 58.9377 14.7535 58.59 14.9228C58.4141 15.0026 58.2055 15.0983 57.9738 15.2096C57.7427 15.3135 57.4885 15.4329 57.2211 15.5675C56.9522 15.6898 56.6674 15.83 56.3742 15.9851C56.0856 16.1426 55.7793 16.3105 55.461 16.4764C55.1421 16.6496 54.8192 16.8452 54.4892 17.0704C54.1456 17.2814 53.7922 17.5271 53.4265 17.8077C53.0445 18.079 52.6608 18.3725 52.2807 18.6831C51.8798 18.9797 51.48 19.2934 51.0827 19.607C50.6646 19.9066 50.2534 20.2109 49.85 20.5075C49.4308 20.7899 49.0238 21.0695 48.6403 21.3286C48.2429 21.5783 47.8758 21.8122 47.5394 22.0254C47.1964 22.229 46.8937 22.414 46.6418 22.5677C46.1271 22.8608 45.8264 23.0507 45.8264 23.0507Z" fill="url(#paint7_linear_920_1537)"/>
<path d="M42.0553 22.2814C42.0553 22.2814 41.8261 22.4245 41.4757 22.6308C41.1231 22.8323 40.6448 23.0922 40.1598 23.3449C39.6684 23.5856 39.1727 23.8191 38.7959 23.9869C38.4149 24.1476 38.1617 24.2547 38.1617 24.2547C38.5329 24.4533 38.9444 24.5988 39.3739 24.6995C39.8067 24.7878 40.2578 24.8263 40.7117 24.8278C41.159 24.8197 41.6072 24.7674 42.0427 24.6908C42.474 24.6047 42.8905 24.4895 43.2762 24.3631C44.0327 24.0837 44.6759 23.7616 45.1272 23.5051C45.5675 23.2342 45.8264 23.0508 45.8264 23.0508C45.8264 23.0508 45.6292 22.8314 45.3024 22.4937C44.9932 22.1479 44.5801 21.6656 44.1183 21.1531C43.9051 20.8876 43.6778 20.6152 43.448 20.3454C43.2235 20.068 42.994 19.7932 42.7607 19.5358C42.5353 19.2707 42.3014 19.0232 42.0627 18.8053C41.8271 18.5799 41.5823 18.3794 41.3217 18.2286C41.3217 18.2286 41.3323 18.4765 41.3527 18.8519C41.3826 19.2319 41.4444 19.7362 41.523 20.2448C41.6232 20.755 41.7478 21.2645 41.8527 21.6468C41.9698 22.0287 42.0553 22.2814 42.0553 22.2814Z" fill="#050B24"/>
<path d="M57.149 18.4141C57.149 18.4141 56.9614 18.6836 56.6671 19.0798C56.5142 19.2743 56.3248 19.5021 56.1174 19.7428C55.9005 19.9814 55.661 20.2305 55.412 20.4751C55.1586 20.715 54.8908 20.9528 54.6339 21.1731C54.3705 21.3838 54.1182 21.5769 53.8971 21.7418C53.4389 22.0576 53.1249 22.2626 53.1249 22.2626C53.1249 22.2626 52.6773 21.3661 53.0451 20.5373C53.2098 20.1211 53.5461 19.7137 54.1811 19.4041C54.4897 19.2386 54.8752 19.0827 55.3591 18.9431C55.6007 18.861 55.8689 18.7804 56.1662 18.7013C56.4617 18.6124 56.7868 18.5176 57.149 18.4141Z" fill="url(#paint8_linear_920_1537)"/>
<defs>
<linearGradient id="paint0_linear_920_1537" x1="100.475" y1="27.3156" x2="100.475" y2="106.543" gradientUnits="userSpaceOnUse">
<stop stop-color="#7ADCFD"/>
<stop offset="0.53125" stop-color="#0092FF"/>
<stop offset="1" stop-color="#0071C6"/>
</linearGradient>
<linearGradient id="paint1_linear_920_1537" x1="119.725" y1="146.68" x2="154.667" y2="56.6498" gradientUnits="userSpaceOnUse">
<stop offset="0.2" stop-color="#0069FF"/>
<stop offset="0.34" stop-color="#0075FF"/>
<stop offset="0.6" stop-color="#0094FF"/>
<stop offset="0.9" stop-color="#00BFFF"/>
</linearGradient>
<linearGradient id="paint2_linear_920_1537" x1="89.0556" y1="18.0243" x2="110.997" y2="18.0243" gradientUnits="userSpaceOnUse">
<stop offset="0.02" stop-color="#7ADCFD"/>
<stop offset="0.03" stop-color="#79DBFD"/>
<stop offset="0.89" stop-color="#0092FF"/>
</linearGradient>
<linearGradient id="paint3_linear_920_1537" x1="94.8942" y1="84.2489" x2="94.8942" y2="35.3327" gradientUnits="userSpaceOnUse">
<stop offset="0.02" stop-color="#7ADCFD"/>
<stop offset="0.03" stop-color="#79DBFD"/>
<stop offset="0.89" stop-color="#0092FF"/>
</linearGradient>
<linearGradient id="paint4_linear_920_1537" x1="35.8595" y1="74.3019" x2="70.8182" y2="125.26" gradientUnits="userSpaceOnUse">
<stop stop-color="#7ADCFD"/>
<stop offset="0.39" stop-color="#32B0FE"/>
<stop offset="0.69" stop-color="#0092FF"/>
</linearGradient>
<linearGradient id="paint5_linear_920_1537" x1="34.0858" y1="57.2114" x2="51.7024" y2="38.5912" gradientUnits="userSpaceOnUse">
<stop offset="0.08" stop-color="#4994FF"/>
<stop offset="0.19" stop-color="#60A1FF"/>
<stop offset="0.4" stop-color="#9AC4FF"/>
<stop offset="0.56" stop-color="#C8DFFF"/>
</linearGradient>
<linearGradient id="paint6_linear_920_1537" x1="33.8995" y1="50.8937" x2="38.6542" y2="50.5995" gradientUnits="userSpaceOnUse">
<stop stop-color="#002C9B"/>
<stop offset="0.32" stop-color="#021F6B"/>
<stop offset="0.61" stop-color="#041444"/>
<stop offset="0.85" stop-color="#050D2D"/>
<stop offset="1" stop-color="#050B24"/>
</linearGradient>
<linearGradient id="paint7_linear_920_1537" x1="53.9892" y1="24.0063" x2="57.7259" y2="12.9008" gradientUnits="userSpaceOnUse">
<stop offset="0.08" stop-color="#4994FF"/>
<stop offset="0.19" stop-color="#60A1FF"/>
<stop offset="0.4" stop-color="#9AC4FF"/>
<stop offset="0.56" stop-color="#C8DFFF"/>
</linearGradient>
<linearGradient id="paint8_linear_920_1537" x1="53.2392" y1="21.6025" x2="56.0037" y2="20.5855" gradientUnits="userSpaceOnUse">
<stop stop-color="#002C9B"/>
<stop offset="0.32" stop-color="#021F6B"/>
<stop offset="0.61" stop-color="#041444"/>
<stop offset="0.85" stop-color="#050D2D"/>
<stop offset="1" stop-color="#050B24"/>
</linearGradient>
</defs>
</svg>
